<?xml version="1.0" standalone="no"?>
<!DOCTYPE svg PUBLIC "-//W3C//DTD SVG 20010904//EN"
 "http://www.w3.org/TR/2001/REC-SVG-20010904/DTD/svg10.dtd">
<svg version="1.0" xmlns="http://www.w3.org/2000/svg"
 width="300.000000pt" height="300.000000pt" viewBox="0 0 300.000000 300.000000"
 preserveAspectRatio="xMidYMid meet">
<metadata>
Created by potrace 1.14, written by Peter Selinger 2001-2017
</metadata>
<g transform="translate(0.000000,300.000000) scale(0.100000,-0.100000)"
fill="#000000" stroke="none">
<path d="M490 2988 c-14 -5 -33 -11 -43 -13 -28 -6 -101 -45 -140 -75 -48 -37
-105 -109 -135 -170 -40 -83 -42 -105 -39 -663 l2 -539 85 -46 c47 -25 128
-69 180 -98 52 -29 97 -50 100 -48 2 3 4 281 5 619 0 610 0 615 21 635 34 34
86 41 126 17 35 -21 58 -35 153 -87 33 -19 62 -37 65 -40 3 -3 16 -11 30 -17
34 -17 96 -53 147 -86 24 -15 46 -27 49 -27 4 0 39 -20 78 -44 39 -23 141 -83
226 -132 85 -48 158 -92 161 -97 3 -5 8 -7 10 -6 2 2 56 -27 120 -64 63 -37
118 -67 121 -67 3 0 16 28 28 63 13 34 28 68 33 75 5 6 7 12 4 12 -3 0 10 39
29 87 19 47 34 94 34 104 0 16 -45 44 -300 189 -83 47 -124 71 -180 104 -25
15 -53 29 -62 33 -10 3 -18 9 -18 14 0 5 -4 9 -9 9 -8 0 -151 81 -416 235
-161 94 -186 106 -252 121 -70 16 -173 17 -213 2z"/>
<path d="M2026 2198 c-7 -18 -26 -67 -41 -108 -15 -41 -31 -84 -36 -95 -10
-22 -39 -106 -39 -111 0 -2 15 -11 33 -20 17 -9 34 -20 37 -23 3 -4 16 -12 30
-19 14 -7 43 -23 65 -37 22 -14 47 -28 55 -32 8 -4 31 -16 50 -28 19 -12 55
-33 80 -47 169 -95 187 -107 200 -138 6 -16 9 -39 5 -52 -8 -24 -53 -78 -66
-78 -5 0 -32 -14 -61 -31 -29 -18 -68 -40 -85 -50 -82 -47 -102 -58 -158 -92
-77 -45 -111 -64 -291 -167 -82 -46 -150 -88 -152 -92 -2 -4 -7 -8 -12 -8 -14
0 -220 -121 -220 -129 0 -4 24 -20 53 -36 28 -15 75 -40 102 -55 28 -15 88
-48 135 -73 l85 -46 320 185 c465 268 476 274 520 303 47 30 118 103 137 140
7 14 16 28 19 31 7 6 37 95 44 131 8 36 8 123 0 160 -10 54 -48 159 -57 159
-4 0 -8 6 -8 14 0 26 -117 131 -196 176 -43 24 -81 47 -84 50 -5 5 -64 38
-125 69 -16 9 -32 19 -35 22 -3 3 -34 21 -70 40 -36 19 -67 36 -70 39 -11 12
-132 80 -141 80 -6 0 -16 -15 -23 -32z"/>
<path d="M130 912 c1 -531 2 -549 51 -648 49 -98 157 -190 267 -228 31 -11 88
-20 135 -21 102 -4 178 18 284 81 41 24 77 44 79 44 2 0 23 12 47 27 51 33
113 69 147 86 14 6 27 14 30 18 3 3 10 8 15 10 9 4 146 82 308 176 39 23 98
56 129 74 60 33 65 48 20 66 -15 7 -63 31 -107 56 -44 24 -116 62 -159 86
l-79 42 -38 -26 c-21 -14 -40 -25 -42 -25 -3 0 -94 -52 -203 -116 -110 -64
-221 -129 -249 -144 -27 -15 -70 -39 -95 -54 -58 -33 -101 -34 -137 0 l-28 26
-1 371 c-2 435 -1 407 -15 407 -6 0 -22 9 -36 20 -14 11 -34 20 -44 20 -9 0
-19 4 -21 8 -1 5 -52 35 -113 67 -60 31 -114 61 -119 66 -6 5 -14 9 -18 9 -5
0 -8 -224 -8 -498z"/>
</g>
</svg>
